# xmcd CD database file
#
# Track frame offsets:
#	150
#	10355
#	23962
#	38285
#	49527
#	63287
#	75112
#	86332
#	97197
#	107380
#	120832
#	131637
#	143145
#	156322
#	167807
#	183252
#	196615
#	212452
#	225695
#	239582
#	252517
#	271622
#	286840
#	298340
#
# Disc length: 4147 seconds
#
# Revision: 2
# Processed by: cddbd v1.5.2PL0 Copyright (c) Steve Scherf et al.
# Submitted via: CDex 1.79
#
DISCID=37103118
DTITLE=Johnny Bush - Greatest Hits- Vol. I
DYEAR=1994
DGENRE=Country
TTITLE0=Green Snakes On The Ceiling
TTITLE1=Texas Dance Hall Girl
TTITLE2=Home In San Antone
TTITLE3=Here Comes The World Again
TTITLE4=That Rain Makin' Baby Of Mine
TTITLE5=Pass Me By
TTITLE6=Lord Let A Lie Come True
TTITLE7=Muscatel Memories
TTITLE8=Haven't I Always
TTITLE9=I Can Feel Him Touching You (All Over Me)
TTITLE10=There Stands The Glass
TTITLE11=(Wine Friend Of Mine) Stand By Me
TTITLE12=We're Back In Love Again
TTITLE13=Whiskey River
TTITLE14=Toy Telephone
TTITLE15=I've Just Destroyed The World
TTITLE16=Jennifer
TTITLE17=Half A World
TTITLE18=I Really Don't Want To Know
TTITLE19=Something Seems To Fall Apart Inside
TTITLE20=Man With No Soul At All
TTITLE21=Secret Love
TTITLE22=Ease Me To The Ground
TTITLE23=From Tennessee To Texas
EXTD=YEAR: 1994
EXTT0=
EXTT1=
EXTT2=
EXTT3=
EXTT4=
EXTT5=
EXTT6=
EXTT7=
EXTT8=
EXTT9=
EXTT10=
EXTT11=
EXTT12=
EXTT13=
EXTT14=
EXTT15=
EXTT16=
EXTT17=
EXTT18=
EXTT19=
EXTT20=
EXTT21=
EXTT22=
EXTT23=
PLAYORDER=
